# This file uses centimeters as units for non-parametric coordinates.

mtllib RoomTop.mtl
v 0.183008 75.292717 -93.131317
v -0.183008 75.292717 -93.131317
v -0.536553 75.292717 -93.036583
v -0.534247 75.089813 -93.453400
v -0.531625 74.819275 -93.760979
v -0.529417 74.443893 -93.874031
v -0.180870 74.445038 -93.967606
v 0.179457 74.446220 -93.967979
v 0.527008 74.447357 -93.875031
v 0.529942 74.821022 -93.761848
v 0.533448 75.090294 -93.453911
v 0.536553 75.292717 -93.036583
v 65.983192 75.292717 -65.724373
v 65.724373 75.292717 -65.983192
v 65.407394 75.292717 -66.166199
v 65.703758 75.089813 -66.459305
v 65.923103 74.819275 -66.674934
v 66.004608 74.443893 -66.753319
v 66.317238 74.445038 -66.573029
v 66.572289 74.446220 -66.318497
v 66.752319 74.447357 -66.007019
v 66.674362 74.821022 -65.924911
v 66.459099 75.090294 -65.704689
v 66.166199 75.292717 -65.407394
v -65.724373 75.292717 -65.983192
v -65.983192 75.292717 -65.724373
v -66.166199 75.292717 -65.407394
v -66.459305 75.089813 -65.703758
v -66.674934 74.819275 -65.923103
v -66.753319 74.443893 -66.004608
v -66.573029 74.445038 -66.317238
v -66.318497 74.446220 -66.572289
v -66.007019 74.447357 -66.752319
v -65.924911 74.821022 -66.674362
v -65.704689 75.090294 -66.459099
v -65.407394 75.292717 -66.166199
v -93.131317 75.292717 -0.183008
v -93.131317 75.292717 0.183008
v -93.036583 75.292717 0.536553
v -93.453400 75.089813 0.534247
v -93.760979 74.819275 0.531625
v -93.874031 74.443893 0.529418
v -93.967606 74.445038 0.180870
v -93.967979 74.446220 -0.179457
v -93.875031 74.447357 -0.527008
v -93.761848 74.821022 -0.529942
v -93.453911 75.090294 -0.533448
v -93.036583 75.292717 -0.536553
v -65.983192 75.292717 65.724373
v -65.724373 75.292717 65.983192
v -65.407394 75.292717 66.166199
v -65.703758 75.089813 66.459305
v -65.923103 74.819275 66.674934
v -66.004608 74.443893 66.753319
v -66.317238 74.445038 66.573029
v -66.572289 74.446220 66.318497
v -66.752319 74.447357 66.007019
v -66.674362 74.821022 65.924911
v -66.459099 75.090294 65.704689
v -66.166199 75.292717 65.407394
v -0.183004 75.292717 93.131317
v 0.183013 75.292717 93.131317
v 0.536554 75.292717 93.036591
v 0.534247 75.089813 93.453407
v 0.531626 74.819275 93.760986
v 0.529418 74.443893 93.874039
v 0.180871 74.445038 93.967613
v -0.179457 74.446220 93.967987
v -0.527008 74.447357 93.875038
v -0.529941 74.821022 93.761856
v -0.533448 75.090294 93.453911
v -0.536553 75.292717 93.036583
v 65.724380 75.292717 65.983200
v 65.983200 75.292717 65.724380
v 66.166206 75.292717 65.407402
v 66.459312 75.089813 65.703766
v 66.674942 74.819275 65.923111
v 66.753326 74.443893 66.004616
v 66.573036 74.445038 66.317245
v 66.318504 74.446220 66.572296
v 66.007027 74.447357 66.752327
v 65.924919 74.821022 66.674370
v 65.704697 75.090294 66.459106
v 65.407402 75.292717 66.166206
v 93.131325 75.292717 0.183013
v 93.131325 75.292717 -0.183004
v 93.036591 75.292717 -0.536553
v 93.453415 75.089813 -0.534246
v 93.760986 74.819275 -0.531624
v 93.874046 74.443893 -0.529417
v 93.967621 74.445038 -0.180870
v 93.967995 74.446220 0.179458
v 93.875046 74.447357 0.527009
v 93.761864 74.821022 0.529942
v 93.453926 75.090294 0.533449
v 93.036598 75.292717 0.536554
v 1.089319 75.292686 -0.194686
v 1.089319 75.292686 0.194686
v 1.283943 75.292694 0.531827
v 0.907929 75.292686 0.632601
v 0.632601 75.292686 0.907929
v 0.531827 75.292694 1.283943
v 0.194686 75.292686 1.089319
v -0.194686 75.292686 1.089319
v -0.531827 75.292694 1.283943
v -0.632601 75.292686 0.907928
v -0.907929 75.292686 0.632601
v -1.283943 75.292694 0.531827
v -1.089319 75.292686 0.194686
v -1.089319 75.292686 -0.194686
v -1.283943 75.292694 -0.531827
v -0.907928 75.292686 -0.632601
v -0.632601 75.292686 -0.907928
v -0.531827 75.292694 -1.283943
v -0.194686 75.292686 -1.089319
v 0.194686 75.292686 -1.089319
v 0.531827 75.292694 -1.283943
v 0.632601 75.292686 -0.907928
v 0.907928 75.292686 -0.632601
v 1.283943 75.292694 -0.531827
v 0.181887 75.090126 -93.547874
v -0.182264 75.089958 -93.547684
v -0.181479 74.819839 -93.854836
v 0.180582 74.820435 -93.855156
v 66.276947 75.090126 -66.019722
v 66.019318 75.089958 -66.277084
v 66.237061 74.819839 -66.493713
v 66.493309 74.820435 -66.237930
v -66.019722 75.090126 -66.276947
v -66.277084 75.089958 -66.019318
v -66.493713 74.819839 -66.237061
v -66.237930 74.820435 -66.493309
v -93.547874 75.090126 -0.181887
v -93.547684 75.089958 0.182264
v -93.854836 74.819839 0.181479
v -93.855156 74.820435 -0.180582
v -66.276947 75.090126 66.019722
v -66.019318 75.089958 66.277084
v -66.237061 74.819839 66.493713
v -66.493309 74.820435 66.237930
v -0.181884 75.090126 93.547882
v 0.182266 75.089958 93.547691
v 0.181480 74.819839 93.854843
v -0.180580 74.820435 93.855164
v 66.019730 75.090126 66.276955
v 66.277092 75.089958 66.019325
v 66.493721 74.819839 66.237068
v 66.237938 74.820435 66.493317
v 93.547890 75.090126 0.181890
v 93.547699 75.089958 -0.182261
v 93.854851 74.819839 -0.181477
v 93.855171 74.820435 0.180583
v 0.424361 75.292686 -0.175776
v 0.424361 75.292686 0.175776
v 0.175776 75.292686 0.424361
v -0.175776 75.292686 0.424361
v -0.424361 75.292686 0.175776
v -0.424361 75.292686 -0.175776
v -0.175776 75.292686 -0.424361
v 0.175776 75.292686 -0.424361
v 0.248585 75.292686 0.000000
v 0.000000 75.292686 0.248585
v -0.000000 75.292686 -0.248585
v -0.248585 75.292686 -0.000000
vt 0.014919 0.302158
vt 0.015193 0.300114
vt 0.496523 0.497643
vt 0.494782 0.498989
vt 0.015977 0.298202
vt 0.497359 0.495607
vt 0.017218 0.296555
vt 0.497064 0.493426
vt 0.008053 0.300053
vt 0.010249 0.300457
vt 0.011616 0.700824
vt 0.009431 0.701251
vt 0.012462 0.301211
vt 0.013820 0.700050
vt 0.016271 0.699082
vt 0.014800 0.295507
vt 0.295862 0.012524
vt 0.296930 0.014931
vt 0.012695 0.294495
vt 0.294830 0.010427
vt 0.010848 0.293253
vt 0.293563 0.008588
vt 0.298569 0.013680
vt 0.499247 0.493706
vt 0.300475 0.012883
vt 0.501277 0.492857
vt 0.302517 0.012595
vt 0.502611 0.491106
vt 0.301549 0.010144
vt 0.700389 0.008786
vt 0.699442 0.011243
vt 0.300775 0.007940
vt 0.701142 0.006573
vt 0.300348 0.005756
vt 0.701546 0.004377
vt 0.018607 0.704670
vt 0.017356 0.703030
vt 0.497382 0.502353
vt 0.497102 0.504536
vt 0.016558 0.701124
vt 0.496532 0.500322
vt 0.012264 0.708036
vt 0.014102 0.706770
vt 0.298171 0.988905
vt 0.296928 0.990752
vt 0.016200 0.705737
vt 0.299182 0.986799
vt 0.300231 0.984382
vt 0.305833 0.986681
vt 0.303789 0.986406
vt 0.501319 0.505076
vt 0.502665 0.506818
vt 0.301878 0.985622
vt 0.499283 0.504241
vt 0.303729 0.993547
vt 0.304133 0.991351
vt 0.704500 0.989984
vt 0.704927 0.992168
vt 0.304886 0.989138
vt 0.703726 0.987780
vt 0.702758 0.985329
vt 0.708345 0.982993
vt 0.706706 0.984244
vt 0.506029 0.504218
vt 0.508212 0.504498
vt 0.704800 0.985041
vt 0.503998 0.505067
vt 0.711712 0.989336
vt 0.710445 0.987497
vt 0.992581 0.703429
vt 0.994427 0.704671
vt 0.709413 0.985400
vt 0.990475 0.702417
vt 0.988058 0.701369
vt 0.990357 0.695766
vt 0.990082 0.697810
vt 0.508752 0.500281
vt 0.510494 0.498935
vt 0.989298 0.699721
vt 0.507917 0.502317
vt 0.997222 0.697871
vt 0.995027 0.697466
vt 0.993659 0.297100
vt 0.995844 0.296673
vt 0.992814 0.696713
vt 0.991456 0.297874
vt 0.989005 0.298842
vt 0.986669 0.293254
vt 0.987920 0.294894
vt 0.507894 0.495571
vt 0.508174 0.493388
vt 0.988717 0.296800
vt 0.508743 0.497602
vt 0.993012 0.289887
vt 0.991173 0.291154
vt 0.707104 0.009019
vt 0.708347 0.007172
vt 0.989076 0.292186
vt 0.706093 0.011124
vt 0.705045 0.013542
vt 0.701486 0.011517
vt 0.503956 0.492848
vt 0.703397 0.012302
vt 0.505993 0.493683
vt 0.013601 0.297206
vt 0.012798 0.299153
vt 0.010679 0.298323
vt 0.008638 0.297635
vt 0.009538 0.295374
vt 0.011511 0.296313
vt 0.299500 0.010497
vt 0.297555 0.011307
vt 0.296643 0.009222
vt 0.295687 0.007292
vt 0.297922 0.006330
vt 0.298653 0.008389
vt 0.014173 0.702100
vt 0.014983 0.704045
vt 0.012898 0.704956
vt 0.010968 0.705913
vt 0.010006 0.703677
vt 0.012064 0.702946
vt 0.300881 0.987999
vt 0.302829 0.988801
vt 0.301999 0.990921
vt 0.301311 0.992962
vt 0.299050 0.992061
vt 0.299989 0.990088
vt 0.705776 0.987427
vt 0.707721 0.986617
vt 0.708632 0.988702
vt 0.709589 0.990632
vt 0.707353 0.991594
vt 0.706622 0.989535
vt 0.991675 0.700718
vt 0.992477 0.698771
vt 0.994596 0.699600
vt 0.996638 0.700289
vt 0.995737 0.702550
vt 0.993764 0.701611
vt 0.991102 0.295824
vt 0.990293 0.293879
vt 0.992378 0.292967
vt 0.994308 0.292011
vt 0.995270 0.294247
vt 0.993211 0.294978
vt 0.704394 0.009925
vt 0.702447 0.009122
vt 0.703276 0.007003
vt 0.703964 0.004962
vt 0.706226 0.005863
vt 0.705287 0.007835
vt 0.502629 0.496366
vt 0.504467 0.497120
vt 0.505234 0.498953
vt 0.504480 0.500792
vt 0.502647 0.501558
vt 0.500808 0.500804
vt 0.500041 0.498971
vt 0.500796 0.497132
vt 0.501338 0.498429
vt 0.502104 0.500262
vt 0.503171 0.497662
vt 0.503938 0.499495
vn 0.002915 -0.999971 0.007046
vn 0.000355 -0.999997 0.002539
vn -0.000004 -1.000000 -0.000000
vn -0.000000 -1.000000 -0.000001
vn -0.000351 -0.999997 0.002536
vn 0.000004 -1.000000 -0.000000
vn -0.002918 -0.999971 0.007053
vn 0.000000 -1.000000 -0.000001
vn 0.368173 -0.266506 0.890743
vn 0.334893 -0.481169 0.810138
vn 0.336125 -0.480758 0.809872
vn 0.369514 -0.266511 0.890186
vn 0.229900 -0.798702 0.556076
vn 0.230694 -0.798582 0.555921
vn 0.002924 -0.999971 0.007050
vn -0.229972 -0.798574 0.556231
vn -0.230643 -0.798694 0.555780
vn -0.002922 -0.999971 0.007043
vn -0.334991 -0.480758 0.810341
vn -0.336051 -0.481168 0.809659
vn -0.368183 -0.266518 0.890735
vn -0.369525 -0.266513 0.890181
vn -0.001544 -0.999997 0.002035
vn -0.000003 -1.000000 -0.000014
vn -0.002041 -0.999997 0.001540
vn 0.000003 -1.000000 -0.000003
vn -0.007051 -0.999971 0.002925
vn 0.000000 -1.000000 -0.000000
vn -0.555930 -0.798574 0.230697
vn -0.556085 -0.798695 0.229903
vn -0.007047 -0.999971 0.002915
vn -0.809867 -0.480767 0.336123
vn -0.810133 -0.481178 0.334890
vn -0.890182 -0.266535 0.369506
vn -0.890739 -0.266530 0.368165
vn 0.007044 -0.999971 0.002922
vn 0.002046 -0.999997 0.001540
vn -0.000003 -1.000000 -0.000003
vn -0.000000 -1.000000 -0.000000
vn 0.001545 -0.999997 0.002030
vn 0.000003 -1.000000 -0.000014
vn 0.890181 -0.266530 0.369513
vn 0.809654 -0.481176 0.336050
vn 0.810337 -0.480766 0.334990
vn 0.890735 -0.266535 0.368171
vn 0.555776 -0.798695 0.230648
vn 0.556228 -0.798575 0.229977
vn 0.007053 -0.999971 0.002918
vn 0.007047 -0.999971 -0.002915
vn 0.002539 -0.999997 -0.000353
vn -0.000000 -1.000000 0.000006
vn -0.000000 -1.000000 0.000000
vn 0.002536 -0.999997 0.000349
vn -0.000000 -1.000000 -0.000006
vn 0.890745 -0.266514 -0.368163
vn 0.810141 -0.481164 -0.334893
vn 0.809875 -0.480753 -0.336125
vn 0.890188 -0.266519 -0.369504
vn 0.556089 -0.798690 -0.229911
vn 0.555934 -0.798569 -0.230705
vn 0.007051 -0.999971 -0.002925
vn 0.002922 -0.999971 -0.007043
vn 0.001544 -0.999997 -0.002035
vn 0.000003 -1.000000 0.000015
vn -0.000000 -1.000000 0.000001
vn 0.002041 -0.999997 -0.001540
vn -0.000003 -1.000000 0.000003
vn 0.369519 -0.266513 -0.890184
vn 0.336050 -0.481170 -0.809658
vn 0.334990 -0.480760 -0.810341
vn 0.368177 -0.266518 -0.890738
vn 0.230644 -0.798700 -0.555771
vn 0.229973 -0.798579 -0.556223
vn 0.002918 -0.999971 -0.007053
vn -0.002915 -0.999971 -0.007046
vn -0.000355 -0.999997 -0.002539
vn 0.000004 -1.000000 0.000000
vn 0.000000 -1.000000 0.000001
vn 0.000351 -0.999997 -0.002536
vn -0.000004 -1.000000 0.000000
vn -0.368173 -0.266506 -0.890743
vn -0.334892 -0.481170 -0.810137
vn -0.336125 -0.480759 -0.809871
vn -0.369514 -0.266511 -0.890186
vn -0.229899 -0.798700 -0.556080
vn -0.230693 -0.798579 -0.555925
vn -0.002924 -0.999971 -0.007050
vn -0.007044 -0.999971 -0.002922
vn -0.002046 -0.999997 -0.001546
vn 0.000003 -1.000000 -0.000003
vn 0.000000 -1.000000 0.000000
vn -0.001545 -0.999997 -0.002030
vn -0.000003 -1.000000 0.000014
vn -0.890182 -0.266531 -0.369509
vn -0.809658 -0.481170 -0.336051
vn -0.810340 -0.480760 -0.334991
vn -0.890737 -0.266536 -0.368167
vn -0.555778 -0.798694 -0.230649
vn -0.556229 -0.798573 -0.229978
vn -0.007053 -0.999971 -0.002917
vn -0.002539 -0.999997 0.000353
vn 0.000000 -1.000000 -0.000006
vn -0.002536 -0.999997 -0.000343
vn 0.000000 -1.000000 0.000012
vn -0.072128 -0.830407 0.552469
vn 0.073763 -0.829928 0.552973
vn 0.110407 -0.532486 0.839208
vn 0.123621 -0.285688 0.950316
vn -0.119926 -0.286129 0.950657
vn -0.107548 -0.533246 0.839096
vn -0.441653 -0.830409 0.339652
vn -0.338851 -0.829928 0.443171
vn -0.515334 -0.532487 0.671483
vn -0.584555 -0.285697 0.759390
vn -0.757010 -0.286137 0.587419
vn -0.669374 -0.533246 0.517289
vn 0.339653 -0.830407 0.441655
vn 0.443175 -0.829925 0.338853
vn 0.671489 -0.532480 0.515332
vn 0.759395 -0.285705 0.584544
vn 0.587440 -0.286129 0.756997
vn 0.517299 -0.533239 0.669371
vn 0.552471 -0.830405 0.072129
vn 0.552972 -0.829928 -0.073765
vn 0.839206 -0.532488 -0.110411
vn 0.950315 -0.285689 -0.123627
vn 0.950662 -0.286119 0.119909
vn 0.839102 -0.533239 0.107536
vn 0.441653 -0.830409 -0.339652
vn 0.338851 -0.829928 -0.443171
vn 0.515334 -0.532487 -0.671483
vn 0.584555 -0.285697 -0.759390
vn 0.757010 -0.286137 -0.587419
vn 0.669374 -0.533246 -0.517289
vn 0.072131 -0.830409 -0.552466
vn -0.073768 -0.829928 -0.552971
vn -0.110414 -0.532486 -0.839206
vn -0.123622 -0.285691 -0.950315
vn 0.119900 -0.286133 -0.950659
vn 0.107533 -0.533250 -0.839095
vn -0.339653 -0.830407 -0.441656
vn -0.443171 -0.829927 -0.338853
vn -0.671485 -0.532480 -0.515338
vn -0.759395 -0.285684 -0.584555
vn -0.587436 -0.286124 -0.757002
vn -0.517298 -0.533240 -0.669371
vn -0.552468 -0.830408 -0.072126
vn -0.552965 -0.829933 0.073761
vn -0.839201 -0.532495 0.110416
vn -0.950314 -0.285688 0.123633
vn -0.950658 -0.286132 -0.119908
vn -0.839095 -0.533251 -0.107534
vn 0.000001 -1.000000 0.000003
vn 0.000001 -1.000000 -0.000005
vn 0.000000 -1.000000 -0.000000
vn -0.000000 -1.000000 0.000003
vn -0.000001 -1.000000 -0.000002
vn -0.000001 -1.000000 -0.000007
vn -0.000000 -1.000000 0.000000
vn 0.000000 -1.000000 0.000005
vn 0.000000 -1.000000 -0.000012
vn 0.000000 -1.000000 -0.000004
vn 0.000000 -1.000000 -0.000006
vn 0.000000 -1.000000 0.000000
s 1
usemtl initialShadingGroup
f 3/1/1 2/2/2 115/3/3 114/4/4
f 2/2/2 1/5/5 116/6/6 115/3/3
f 1/5/5 12/7/7 117/8/8 116/6/6
f 6/9/9 5/10/10 34/11/11 33/12/12
f 5/10/10 4/13/13 35/14/14 34/11/11
f 4/13/13 3/1/1 36/15/15 35/14/14
f 12/7/7 11/16/16 16/17/17 15/18/18
f 11/16/16 10/19/19 17/20/20 16/17/17
f 10/19/19 9/21/21 18/22/22 17/20/20
f 15/18/18 14/23/23 118/24/24 117/8/8
f 14/23/23 13/25/25 119/26/26 118/24/24
f 13/25/25 24/27/27 120/28/28 119/26/26
f 24/27/27 23/29/29 88/30/30 87/31/31
f 23/29/29 22/32/32 89/33/33 88/30/30
f 22/32/32 21/34/34 90/35/35 89/33/33
f 27/36/36 26/37/37 112/38/38 111/39/39
f 26/37/37 25/40/40 113/41/41 112/38/38
f 25/40/40 36/15/15 114/4/4 113/41/41
f 30/42/42 29/43/43 46/44/44 45/45/45
f 29/43/43 28/46/46 47/47/47 46/44/44
f 28/46/46 27/36/36 48/48/48 47/47/47
f 39/49/49 38/50/50 109/51/51 108/52/52
f 38/50/50 37/53/53 110/54/54 109/51/51
f 37/53/53 48/48/48 111/39/39 110/54/54
f 42/55/55 41/56/56 58/57/57 57/58/58
f 41/56/56 40/59/59 59/60/60 58/57/57
f 40/59/59 39/49/49 60/61/61 59/60/60
f 51/62/62 50/63/63 106/64/64 105/65/65
f 50/63/63 49/66/66 107/67/67 106/64/64
f 49/66/66 60/61/61 108/52/52 107/67/67
f 54/68/68 53/69/69 70/70/70 69/71/71
f 53/69/69 52/72/72 71/73/73 70/70/70
f 52/72/72 51/62/62 72/74/74 71/73/73
f 63/75/75 62/76/76 103/77/77 102/78/78
f 62/76/76 61/79/79 104/80/80 103/77/77
f 61/79/79 72/74/74 105/65/65 104/80/80
f 66/81/81 65/82/82 82/83/83 81/84/84
f 65/82/82 64/85/85 83/86/86 82/83/83
f 64/85/85 63/75/75 84/87/87 83/86/86
f 75/88/88 74/89/89 100/90/90 99/91/91
f 74/89/89 73/92/92 101/93/93 100/90/90
f 73/92/92 84/87/87 102/78/78 101/93/93
f 78/94/94 77/95/95 94/96/96 93/97/97
f 77/95/95 76/98/98 95/99/99 94/96/96
f 76/98/98 75/88/88 96/100/100 95/99/99
f 87/31/31 86/101/101 97/102/102 120/28/28
f 86/101/101 85/103/103 98/104/104 97/102/102
f 85/103/103 96/100/100 99/91/91 98/104/104
f 15/18/18 117/8/8 12/7/7
f 3/1/1 114/4/4 36/15/15
f 27/36/36 111/39/39 48/48/48
f 39/49/49 108/52/52 60/61/61
f 51/62/62 105/65/65 72/74/74
f 63/75/75 102/78/78 84/87/87
f 75/88/88 99/91/91 96/100/100
f 87/31/31 120/28/28 24/27/27
f 11/16/16 12/7/7 1/5/5 121/105/105
f 121/105/105 1/5/5 2/2/2 122/106/106
f 2/2/2 3/1/1 4/13/13 122/106/106
f 122/106/106 4/13/13 5/10/10 123/107/107
f 5/10/10 6/9/9 7/108/108 123/107/107
f 123/107/107 7/108/108 8/109/109 124/110/110
f 8/109/109 9/21/21 10/19/19 124/110/110
f 124/110/110 10/19/19 11/16/16 121/105/105
f 121/105/105 122/106/106 123/107/107 124/110/110
f 23/29/29 24/27/27 13/25/25 125/111/111
f 125/111/111 13/25/25 14/23/23 126/112/112
f 14/23/23 15/18/18 16/17/17 126/112/112
f 126/112/112 16/17/17 17/20/20 127/113/113
f 17/20/20 18/22/22 19/114/114 127/113/113
f 127/113/113 19/114/114 20/115/115 128/116/116
f 20/115/115 21/34/34 22/32/32 128/116/116
f 128/116/116 22/32/32 23/29/29 125/111/111
f 125/111/111 126/112/112 127/113/113 128/116/116
f 35/14/14 36/15/15 25/40/40 129/117/117
f 129/117/117 25/40/40 26/37/37 130/118/118
f 26/37/37 27/36/36 28/46/46 130/118/118
f 130/118/118 28/46/46 29/43/43 131/119/119
f 29/43/43 30/42/42 31/120/120 131/119/119
f 131/119/119 31/120/120 32/121/121 132/122/122
f 32/121/121 33/12/12 34/11/11 132/122/122
f 132/122/122 34/11/11 35/14/14 129/117/117
f 129/117/117 130/118/118 131/119/119 132/122/122
f 47/47/47 48/48/48 37/53/53 133/123/123
f 133/123/123 37/53/53 38/50/50 134/124/124
f 38/50/50 39/49/49 40/59/59 134/124/124
f 134/124/124 40/59/59 41/56/56 135/125/125
f 41/56/56 42/55/55 43/126/126 135/125/125
f 135/125/125 43/126/126 44/127/127 136/128/128
f 44/127/127 45/45/45 46/44/44 136/128/128
f 136/128/128 46/44/44 47/47/47 133/123/123
f 133/123/123 134/124/124 135/125/125 136/128/128
f 59/60/60 60/61/61 49/66/66 137/129/129
f 137/129/129 49/66/66 50/63/63 138/130/130
f 50/63/63 51/62/62 52/72/72 138/130/130
f 138/130/130 52/72/72 53/69/69 139/131/131
f 53/69/69 54/68/68 55/132/132 139/131/131
f 139/131/131 55/132/132 56/133/133 140/134/134
f 56/133/133 57/58/58 58/57/57 140/134/134
f 140/134/134 58/57/57 59/60/60 137/129/129
f 137/129/129 138/130/130 139/131/131 140/134/134
f 71/73/73 72/74/74 61/79/79 141/135/135
f 141/135/135 61/79/79 62/76/76 142/136/136
f 62/76/76 63/75/75 64/85/85 142/136/136
f 142/136/136 64/85/85 65/82/82 143/137/137
f 65/82/82 66/81/81 67/138/138 143/137/137
f 143/137/137 67/138/138 68/139/139 144/140/140
f 68/139/139 69/71/71 70/70/70 144/140/140
f 144/140/140 70/70/70 71/73/73 141/135/135
f 141/135/135 142/136/136 143/137/137 144/140/140
f 83/86/86 84/87/87 73/92/92 145/141/141
f 145/141/141 73/92/92 74/89/89 146/142/142
f 74/89/89 75/88/88 76/98/98 146/142/142
f 146/142/142 76/98/98 77/95/95 147/143/143
f 77/95/95 78/94/94 79/144/144 147/143/143
f 147/143/143 79/144/144 80/145/145 148/146/146
f 80/145/145 81/84/84 82/83/83 148/146/146
f 148/146/146 82/83/83 83/86/86 145/141/141
f 145/141/141 146/142/142 147/143/143 148/146/146
f 95/99/99 96/100/100 85/103/103 149/147/147
f 149/147/147 85/103/103 86/101/101 150/148/148
f 86/101/101 87/31/31 88/30/30 150/148/148
f 150/148/148 88/30/30 89/33/33 151/149/149
f 89/33/33 90/35/35 91/150/150 151/149/149
f 151/149/149 91/150/150 92/151/151 152/152/152
f 92/151/151 93/97/97 94/96/96 152/152/152
f 152/152/152 94/96/96 95/99/99 149/147/147
f 149/147/147 150/148/148 151/149/149 152/152/152
f 119/26/26 120/28/28 97/102/102 153/153/153
f 153/153/153 97/102/102 98/104/104 154/154/154
f 98/104/104 99/91/91 100/90/90 154/154/154
f 154/154/154 100/90/90 101/93/93 155/155/155
f 101/93/93 102/78/78 103/77/77 155/155/155
f 155/155/155 103/77/77 104/80/80 156/156/156
f 104/80/80 105/65/65 106/64/64 156/156/156
f 156/156/156 106/64/64 107/67/67 157/157/157
f 107/67/67 108/52/52 109/51/51 157/157/157
f 157/157/157 109/51/51 110/54/54 158/158/158
f 110/54/54 111/39/39 112/38/38 158/158/158
f 158/158/158 112/38/38 113/41/41 159/159/159
f 113/41/41 114/4/4 115/3/3 159/159/159
f 159/159/159 115/3/3 116/6/6 160/160/160
f 116/6/6 117/8/8 118/24/24 160/160/160
f 160/160/160 118/24/24 119/26/26 153/153/153
f 160/160/160 163/161/161 159/159/159
f 159/159/159 163/161/161 164/162/162 158/158/158
f 158/158/158 164/162/162 157/157/157
f 153/153/153 154/154/154 161/163/163
f 162/164/164 161/163/163 154/154/154 155/155/155
f 156/156/156 162/164/164 155/155/155
f 153/153/153 161/163/163 163/161/161 160/160/160
f 164/162/162 163/161/161 161/163/163 162/164/164
f 157/157/157 164/162/162 162/164/164 156/156/156
